<?xml version="1.0" standalone="no"?>
<!DOCTYPE svg PUBLIC "-//W3C//DTD SVG 20010904//EN"
 "http://www.w3.org/TR/2001/REC-SVG-20010904/DTD/svg10.dtd">
<svg version="1.0" xmlns="http://www.w3.org/2000/svg"
 width="700.000000pt" height="700.000000pt" viewBox="0 0 700.000000 700.000000"
 preserveAspectRatio="xMidYMid meet">
<metadata>
Created by potrace 1.14, written by Peter Selinger 2001-2017
</metadata>
<g transform="translate(0.000000,700.000000) scale(0.100000,-0.100000)"
fill="#000000" stroke="none">
<path d="M3907 6986 c-139 -52 -275 -230 -382 -501 -15 -38 -30 -74 -33 -79
-2 -5 -19 27 -37 70 -76 188 -161 329 -249 413 -144 136 -293 135 -434 -2
-259 -252 -445 -911 -513 -1822 -23 -303 -13 -1026 17 -1219 l6 -39 -182 6
c-101 4 -360 7 -576 7 l-394 0 -2 1418 c-3 1241 -5 1421 -18 1447 l-15 30
-131 3 -131 3 -14 -33 c-12 -28 -14 -520 -14 -3153 0 -2971 1 -3122 18 -3148
17 -27 18 -27 142 -27 l124 0 18 33 c17 30 18 113 21 1429 l2 1397 633 -6
c348 -4 645 -3 658 0 28 7 52 51 69 127 14 66 12 270 -5 400 -54 427 -62 1005
-20 1415 80 772 305 1271 552 1226 135 -25 268 -214 367 -520 25 -77 52 -154
61 -171 18 -35 53 -40 78 -12 9 10 41 92 70 183 126 384 285 576 439 529 262
-78 459 -681 508 -1550 13 -248 41 -352 97 -366 32 -8 55 19 75 86 19 64 15
430 -6 655 -32 332 -92 702 -151 925 -69 258 -173 514 -262 646 -50 73 -135
155 -193 184 -55 28 -142 35 -193 16z"/>
<path d="M436 6164 c-9 -8 -19 -27 -23 -42 -5 -15 -8 -1181 -8 -2592 0 -2270
2 -2568 15 -2595 l15 -30 130 0 130 0 15 30 c13 27 15 325 15 2595 0 1411 -3
2577 -8 2592 -14 52 -29 58 -152 58 -90 0 -117 -3 -129 -16z"/>
<path d="M23 5543 c-17 -26 -18 -120 -18 -1998 0 -1870 1 -1972 18 -1998 17
-27 18 -27 142 -27 124 0 125 0 142 27 17 26 18 128 18 1993 0 1734 -2 1969
-15 1995 l-15 30 -127 3 -127 3 -18 -28z"/>
</g>
</svg>
