<svg width="30" height="30" xmlns="http://www.w3.org/2000/svg">
 <!-- Created with SVG Editor - http://github.com/mzalive/SVG Editor/ -->

 <g>
  <title>background</title>
  <rect fill="none" id="canvas_background" height="32" width="32" y="-1" x="-1"/>
  <g display="none" overflow="visible" y="0" x="0" height="100%" width="100%" id="canvasGrid">
   <rect fill="url(#gridpattern)" stroke-width="0" y="0" x="0" height="100%" width="100%"/>
  </g>
 </g>
 <g>
  <title>Layer 1</title>
  <!-- Created with SVG Editor - http://github.com/mzalive/SVG Editor/ -->
  <g stroke="null" id="svg_16">
   <g stroke="null" transform="matrix(0.9997827780189211,0,0,1.0036888857012902,-120.00190911764567,-120.40423910301675) " id="svg_14">
    <title stroke="null" transform="translate(119.99999237060547,0) translate(0,119.99999237060547) ">background</title>
    <rect stroke="null" x="118.999992" y="118.999992" width="32" height="32" id="svg_12" fill="#fff"/>
   </g>
   <g stroke-opacity="0" stroke="null" transform="matrix(0.9997827780189211,0,0,1.0036888857012902,-120.00190911764567,-120.40423910301675) " id="svg_15">
    <title stroke="#000000" transform="translate(119.99999237060547,0) translate(0,119.99999237060547) ">Layer 1</title>
    <g stroke="null" id="svg_10">
     <rect stroke="#00ff00" x="119.999992" y="119.874996" width="30" height="30" fill="#000000" id="svg_11"/>
     <polyline stroke-linecap="round" id="svg_17" points="14.968750790734944,8.96890261184441 14.968750790734944,8.96890261184441 14.968750790734944,9.031401030374521 14.968750790734944,9.156397867434737 14.968750790734944,9.21889628596485 15.031249209265056,9.531388378615397 15.093747627795167,9.718883634205728 15.156246046325272,10.218870982446603 15.156246046325272,10.406366238036934 15.156246046325272,10.593861493627262 15.156246046325272,11.03135042333803 15.156246046325272,11.21884567892836 15.156246046325272,11.4688393530488 15.156246046325272,11.906328282759567 15.156246046325272,12.031325119819787 15.156246046325272,12.156321956880006 15.156246046325272,12.468814049530554 15.156246046325272,12.593810886590774 15.156246046325272,12.718807723650993 15.156246046325272,13.03129981630154 15.156246046325272,13.15629665336176 15.156246046325272,13.468788746012308 15.156246046325272,13.593785583072528 15.156246046325272,13.718782420132747 15.156246046325272,13.968776094253187 15.156246046325272,14.156271349843518 15.156246046325272,14.281268186903734 15.156246046325272,14.531261861024173 15.156246046325272,14.718757116614505 15.156246046325272,14.781255535144613 15.156246046325272,15.09374762779516 15.156246046325272,15.21874446485538 15.156246046325272,15.46873813897582 15.156246046325272,15.65623339456615 15.156246046325272,15.843728650156478 15.156246046325272,16.218719161337138 15.156246046325272,16.468712835457577 15.156246046325272,16.718706509578016 15.156246046325272,17.093697020758672 15.156246046325272,17.21869385781889 15.156246046325272,17.406189113409223 15.156246046325272,17.46868753193933 15.156246046325272,17.46868753193933 15.156246046325272,17.531185950469443 15.156246046325272,17.59368436899955 15.156246046325272,17.65618278752966 " opacity="0.5" stroke-width="null" stroke="#00ff00" fill="none"/>
     <polyline stroke-linecap="round" id="svg_18" points="10.281369400976715,14.968750790734944 10.343867819506826,14.968750790734944 10.656359912157374,14.968750790734944 11.093848841868144,14.968750790734944 11.593836190109023,14.968750790734944 13.28129349042198,14.968750790734944 14.218769768373626,14.968750790734944 15.218744464855384,14.968750790734944 17.21869385781889,14.968750790734944 18.093671717240433,14.968750790734944 19.656132180493174,14.718757116614505 20.406113202854492,14.718757116614505 21.0935958066857,14.531261861024173 22.281065758757784,14.468763442494065 22.843551525528767,14.281268186903734 23.343538873769646,14.218769768373626 23.96852305907074,14.093772931313406 24.031021477600852,14.093772931313406 24.093519896130964,14.093772931313406 " opacity="0.5" stroke-width="null" stroke="#00ff00" fill="none"/>
    </g>
    <g stroke="null" id="svg_8">
     <path stroke="#000000" d="m146.571422,136.688762l-9.70408,0l0,10.13265l-3.2347,0l0,-10.13265l-9.70407,0l0,-3.37754l9.70407,0l0,-10.13265l3.2347,0l0,10.13265l9.70408,0l0,3.37754z" fill="#ffffff" id="svg_9"/>
    </g>
   </g>
  </g>
 </g>
</svg>