<svg data-v-45fd1d1e="" viewBox="0 0 28 26" xmlns="http://www.w3.org/2000/svg"><path data-v-45fd1d1e="" fill-rule="evenodd" clip-rule="evenodd" d="M9.33331 0.166664C9.97764 0.166664 10.5 0.688999 10.5 1.33333V2.16666H17.5V1.33333C17.5 0.688999 18.0223 0.166664 18.6666 0.166664C19.311 0.166664 19.8333 0.688999 19.8333 1.33333V2.16666H22C24.8535 2.16666 27.1666 4.47986 27.1666 7.33333V20.6667C27.1666 23.5201 24.8534 25.8333 22 25.8333H5.99998C3.14651 25.8333 0.833313 23.5201 0.833313 20.6667V7.33333C0.833313 4.47986 3.14651 2.16666 5.99998 2.16666H8.16665V1.33333C8.16665 0.688999 8.68898 0.166664 9.33331 0.166664ZM8.16665 4.5H5.99998C4.43517 4.5 3.16665 5.76852 3.16665 7.33333V9.5H24.8333V7.33333C24.8333 5.76852 23.5648 4.5 22 4.5H19.8333V5.33333C19.8333 5.97766 19.311 6.5 18.6666 6.5C18.0223 6.5 17.5 5.97766 17.5 5.33333V4.5H10.5V5.33333C10.5 5.97766 9.97764 6.5 9.33331 6.5C8.68898 6.5 8.16665 5.97766 8.16665 5.33333V4.5ZM24.8333 11.8333H3.16665V20.6667C3.16665 22.2315 4.43517 23.5 5.99998 23.5H22C23.5648 23.5 24.8333 22.2315 24.8333 20.6667V11.8333Z"></path></svg>