<?xml version="1.0" encoding="UTF-8" standalone="no"?>
<!-- Created with Inkscape (http://www.inkscape.org/) -->

<svg
   width="217.52136"
   height="73.915123"
   viewBox="0 0 57.552661 19.556721"
   version="1.1"
   id="svg1"
   inkscape:version="1.3 (0e150ed6c4, 2023-07-21)"
   sodipodi:docname="MyKino.svg"
   xmlns:inkscape="http://www.inkscape.org/namespaces/inkscape"
   xmlns:sodipodi="http://sodipodi.sourceforge.net/DTD/sodipodi-0.dtd"
   xmlns="http://www.w3.org/2000/svg"
   xmlns:svg="http://www.w3.org/2000/svg">
  <sodipodi:namedview
     id="namedview1"
     pagecolor="#ffffff"
     bordercolor="#000000"
     borderopacity="0.25"
     inkscape:showpageshadow="2"
     inkscape:pageopacity="0.0"
     inkscape:pagecheckerboard="0"
     inkscape:deskcolor="#d1d1d1"
     inkscape:document-units="mm"
     inkscape:zoom="0.88945859"
     inkscape:cx="137.72423"
     inkscape:cy="218.11021"
     inkscape:window-width="1280"
     inkscape:window-height="941"
     inkscape:window-x="-4"
     inkscape:window-y="-4"
     inkscape:window-maximized="1"
     inkscape:current-layer="layer1" />
  <defs
     id="defs1" />
  <g
     inkscape:label="Слой 1"
     inkscape:groupmode="layer"
     id="layer1"
     transform="translate(-29.234545,-13.324858)">
    <text
       xml:space="preserve"
       style="font-style:normal;font-variant:normal;font-weight:bold;font-stretch:normal;font-size:11.6461px;font-family:Arial;-inkscape-font-specification:'Arial Bold';font-variant-ligatures:normal;font-variant-caps:normal;font-variant-numeric:normal;font-variant-east-asian:normal;display:inline;fill:#000000;fill-opacity:0.999999;stroke:#000000;stroke-width:0.436728;stroke-opacity:1"
       x="28.679535"
       y="30.365845"
       id="text10"><tspan
         sodipodi:role="line"
         id="tspan10"
         style="stroke-width:0.436728"
         x="28.679535"
         y="30.365845">кинотеатр</tspan></text>
    <text
       xml:space="preserve"
       style="font-style:normal;font-variant:normal;font-weight:bold;font-stretch:normal;font-size:11.6461px;font-family:Arial;-inkscape-font-specification:'Arial Bold';font-variant-ligatures:normal;font-variant-caps:normal;font-variant-numeric:normal;font-variant-east-asian:normal;display:inline;fill:#000000;fill-opacity:0.999999;stroke:#000000;stroke-width:0.436728;stroke-opacity:1"
       x="28.744263"
       y="22.033245"
       id="text11"><tspan
         sodipodi:role="line"
         id="tspan11"
         style="stroke-width:0.436728"
         x="28.744263"
         y="22.033245">мой</tspan></text>
    <g
       style="display:inline;fill:#000000"
       id="g11"
       transform="matrix(0.27295497,0,0,0.27295497,60.458208,14.125504)">
      <path
         d="M 29.6,13 H 2.4 C 1.1,13 0,14.1 0,15.4 V 25 c 0,1.7 1.3,3 3,3 h 8.8 c 1.1,0 2.1,-0.4 2.8,-1.2 0.8,-0.8 2.1,-0.8 2.8,0 0.8,0.8 1.8,1.2 2.8,1.2 H 29 c 1.7,0 3,-1.3 3,-3 V 15.4 C 32,14.1 30.9,13 29.6,13 Z M 14,23 c 0,0.6 -0.4,1 -1,1 H 5 C 4.4,24 4,23.6 4,23 v -5 c 0,-0.6 0.4,-1 1,-1 h 8 c 0.6,0 1,0.4 1,1 z m 14,0 c 0,0.6 -0.4,1 -1,1 h -8 c -0.6,0 -1,-0.4 -1,-1 v -5 c 0,-0.6 0.4,-1 1,-1 h 8 c 0.6,0 1,0.4 1,1 z"
         id="path1" />
      <g
         id="g2">&#10;	<path
   d="m 1,15.3 c -0.1,0 -0.2,0 -0.2,-0.1 C 0.7,15.1 0.7,15 0.8,14.9 L 4.7,8.3 C 6,6.1 8.4,4.8 11,4.8 c 0.1,0 0.3,0.1 0.3,0.3 v 3 c 0,0.1 -0.1,0.3 -0.3,0.3 -1.6,0 -3,1.2 -3.2,2.8 l -0.4,3 c 0,0.1 -0.1,0.2 -0.2,0.2 L 1,15.3 c 0,-0.1 0,0 0,0 z M 4.9,8.4 Z"
   id="path2" />
&#10;</g>
      <g
         id="g3">&#10;	<path
   d="m 31,15.3 c 0,0 0,-0.1 0,0 l -6.2,-1 c -0.1,0 -0.2,-0.1 -0.2,-0.2 l -0.4,-3 C 24,9.4 22.6,8.3 21,8.3 20.9,8.3 20.7,8.2 20.7,8 V 5 c 0,-0.1 0.1,-0.3 0.3,-0.3 2.6,0 5,1.4 6.3,3.6 l 3.9,6.6 c 0.1,0.1 0,0.2 0,0.3 0,0 -0.1,0.1 -0.2,0.1 z"
   id="path3" />
&#10;</g>
    </g>
  </g>
</svg>
